<mxfile host="app.diagrams.net" modified="2020-09-22T18:28:28.515Z" agent="5.0 (Windows NT 10.0; Win64; x64) AppleWebKit/537.36 (KHTML, like Gecko) Chrome/85.0.4183.102 Safari/537.36" etag="ZIdyUl5Naz_cGI4-92WU" version="13.7.4" type="github">
  <diagram id="CBkBxMGbKQIa2tWG8Eqj" name="Page-1">
    <mxGraphModel dx="868" dy="450" grid="1" gridSize="10" guides="1" tooltips="1" connect="1" arrows="1" fold="1" page="1" pageScale="1" pageWidth="827" pageHeight="1169" math="0" shadow="0">
      <root>
        <mxCell id="0" />
        <mxCell id="1" parent="0" />
        <mxCell id="_8RPCpvjZjzcBCwXv_I6-5" style="edgeStyle=orthogonalEdgeStyle;rounded=0;orthogonalLoop=1;jettySize=auto;html=1;entryX=0.5;entryY=0;entryDx=0;entryDy=0;" parent="1" source="_8RPCpvjZjzcBCwXv_I6-1" target="_8RPCpvjZjzcBCwXv_I6-2" edge="1">
          <mxGeometry relative="1" as="geometry" />
        </mxCell>
        <mxCell id="_8RPCpvjZjzcBCwXv_I6-1" value="START-BIPAP" style="ellipse;whiteSpace=wrap;html=1;" parent="1" vertex="1">
          <mxGeometry x="440" y="10" width="120" height="80" as="geometry" />
        </mxCell>
        <mxCell id="_8RPCpvjZjzcBCwXv_I6-7" style="edgeStyle=orthogonalEdgeStyle;rounded=0;orthogonalLoop=1;jettySize=auto;html=1;entryX=1;entryY=0.5;entryDx=0;entryDy=0;" parent="1" source="_8RPCpvjZjzcBCwXv_I6-2" target="_8RPCpvjZjzcBCwXv_I6-6" edge="1">
          <mxGeometry relative="1" as="geometry" />
        </mxCell>
        <mxCell id="_8RPCpvjZjzcBCwXv_I6-2" value="Read Settings from POT&lt;br&gt;&lt;div align=&quot;left&quot;&gt;&lt;ol&gt;&lt;li&gt;&lt;div&gt;IPAP&lt;/div&gt;&lt;/li&gt;&lt;li&gt;EPAP&lt;/li&gt;&lt;li&gt;BPM (back up Rate)&lt;br&gt;&lt;/li&gt;&lt;/ol&gt;&lt;/div&gt;" style="rounded=0;whiteSpace=wrap;html=1;" parent="1" vertex="1">
          <mxGeometry x="395" y="120" width="210" height="80" as="geometry" />
        </mxCell>
        <mxCell id="ikbd0YLyJ07GOoHk70pH-44" style="edgeStyle=orthogonalEdgeStyle;rounded=0;orthogonalLoop=1;jettySize=auto;html=1;" edge="1" parent="1" source="_8RPCpvjZjzcBCwXv_I6-6" target="_8RPCpvjZjzcBCwXv_I6-8">
          <mxGeometry relative="1" as="geometry" />
        </mxCell>
        <mxCell id="_8RPCpvjZjzcBCwXv_I6-6" value="Read Settings from APP/SDCARD&lt;br&gt;&lt;div align=&quot;left&quot;&gt;&lt;ol&gt;&lt;li&gt;&lt;div&gt;ITime-- Default : 1/4 of 1/BPM&lt;br&gt;&lt;/div&gt;&lt;/li&gt;&lt;li&gt;ITrigger--- Default: 5% EPAP&lt;br&gt;&lt;/li&gt;&lt;li&gt;BPM -Default 20(back up rate)&lt;br&gt;&lt;/li&gt;&lt;li&gt;ETrigger =20% MaxFlow&lt;/li&gt;&lt;/ol&gt;&lt;/div&gt;" style="rounded=0;whiteSpace=wrap;html=1;" parent="1" vertex="1">
          <mxGeometry x="80" y="115" width="240" height="90" as="geometry" />
        </mxCell>
        <mxCell id="ikbd0YLyJ07GOoHk70pH-42" style="edgeStyle=orthogonalEdgeStyle;rounded=0;orthogonalLoop=1;jettySize=auto;html=1;entryX=0.5;entryY=0;entryDx=0;entryDy=0;exitX=1;exitY=0.5;exitDx=0;exitDy=0;" edge="1" parent="1" source="_8RPCpvjZjzcBCwXv_I6-8" target="_8RPCpvjZjzcBCwXv_I6-10">
          <mxGeometry relative="1" as="geometry" />
        </mxCell>
        <mxCell id="_8RPCpvjZjzcBCwXv_I6-8" value="&lt;div align=&quot;left&quot;&gt;&lt;ul&gt;&lt;li&gt;ETime=1/BPM - ITime&lt;/li&gt;&lt;li&gt;TrigPr=EPAP*ITrigger/100&lt;/li&gt;&lt;/ul&gt;&lt;/div&gt;" style="rounded=1;whiteSpace=wrap;html=1;" parent="1" vertex="1">
          <mxGeometry x="80" y="240" width="240" height="50" as="geometry" />
        </mxCell>
        <mxCell id="_8RPCpvjZjzcBCwXv_I6-13" value="" style="edgeStyle=orthogonalEdgeStyle;rounded=0;orthogonalLoop=1;jettySize=auto;html=1;" parent="1" source="_8RPCpvjZjzcBCwXv_I6-10" target="_8RPCpvjZjzcBCwXv_I6-11" edge="1">
          <mxGeometry relative="1" as="geometry" />
        </mxCell>
        <mxCell id="_8RPCpvjZjzcBCwXv_I6-10" value="SetPr=EPAP&lt;br&gt;T1= 0" style="rounded=1;whiteSpace=wrap;html=1;" parent="1" vertex="1">
          <mxGeometry x="280" y="350" width="240" height="60" as="geometry" />
        </mxCell>
        <mxCell id="_8RPCpvjZjzcBCwXv_I6-15" value="" style="edgeStyle=orthogonalEdgeStyle;rounded=0;orthogonalLoop=1;jettySize=auto;html=1;entryX=0.5;entryY=0;entryDx=0;entryDy=0;" parent="1" source="_8RPCpvjZjzcBCwXv_I6-11" target="_8RPCpvjZjzcBCwXv_I6-16" edge="1">
          <mxGeometry relative="1" as="geometry">
            <mxPoint x="400" y="550" as="targetPoint" />
          </mxGeometry>
        </mxCell>
        <mxCell id="_8RPCpvjZjzcBCwXv_I6-11" value="&lt;div align=&quot;left&quot;&gt;&lt;ul&gt;&lt;li&gt;Read Current Pressur -&amp;gt;ActPR&lt;/li&gt;&lt;li&gt;Run PID-Loop(SetPr,ActPr,Output)&lt;/li&gt;&lt;li&gt;Print Measured Pressure to LCD&lt;/li&gt;&lt;li&gt;Set Blower PWM-&amp;gt; Output&lt;br&gt;&lt;/li&gt;&lt;/ul&gt;&lt;/div&gt;" style="rounded=1;whiteSpace=wrap;html=1;align=left;" parent="1" vertex="1">
          <mxGeometry x="280" y="460" width="240" height="80" as="geometry" />
        </mxCell>
        <mxCell id="_8RPCpvjZjzcBCwXv_I6-17" style="edgeStyle=orthogonalEdgeStyle;rounded=0;orthogonalLoop=1;jettySize=auto;html=1;entryX=0;entryY=0.5;entryDx=0;entryDy=0;" parent="1" source="_8RPCpvjZjzcBCwXv_I6-16" target="_8RPCpvjZjzcBCwXv_I6-19" edge="1">
          <mxGeometry relative="1" as="geometry">
            <mxPoint x="540" y="620" as="targetPoint" />
          </mxGeometry>
        </mxCell>
        <mxCell id="_8RPCpvjZjzcBCwXv_I6-45" value="" style="edgeStyle=orthogonalEdgeStyle;rounded=0;orthogonalLoop=1;jettySize=auto;html=1;" parent="1" source="_8RPCpvjZjzcBCwXv_I6-16" target="_8RPCpvjZjzcBCwXv_I6-25" edge="1">
          <mxGeometry relative="1" as="geometry" />
        </mxCell>
        <mxCell id="_8RPCpvjZjzcBCwXv_I6-16" value="is&lt;br&gt;ActPr&amp;lt;TrigPr" style="rhombus;whiteSpace=wrap;html=1;" parent="1" vertex="1">
          <mxGeometry x="340" y="570" width="120" height="80" as="geometry" />
        </mxCell>
        <mxCell id="_8RPCpvjZjzcBCwXv_I6-18" value="No" style="text;html=1;align=center;verticalAlign=middle;resizable=0;points=[];autosize=1;" parent="1" vertex="1">
          <mxGeometry x="460" y="610" width="30" height="20" as="geometry" />
        </mxCell>
        <mxCell id="_8RPCpvjZjzcBCwXv_I6-34" style="edgeStyle=orthogonalEdgeStyle;rounded=0;orthogonalLoop=1;jettySize=auto;html=1;exitX=0.5;exitY=1;exitDx=0;exitDy=0;" parent="1" edge="1" source="_8RPCpvjZjzcBCwXv_I6-19">
          <mxGeometry relative="1" as="geometry">
            <mxPoint x="400" y="680" as="targetPoint" />
            <mxPoint x="600" y="660" as="sourcePoint" />
            <Array as="points">
              <mxPoint x="610" y="680" />
            </Array>
          </mxGeometry>
        </mxCell>
        <mxCell id="_8RPCpvjZjzcBCwXv_I6-19" value="is T1&amp;gt;ETime" style="rhombus;whiteSpace=wrap;html=1;" parent="1" vertex="1">
          <mxGeometry x="550" y="560" width="120" height="100" as="geometry" />
        </mxCell>
        <mxCell id="_8RPCpvjZjzcBCwXv_I6-21" value="No" style="text;html=1;align=center;verticalAlign=middle;resizable=0;points=[];autosize=1;" parent="1" vertex="1">
          <mxGeometry x="610" y="540" width="30" height="20" as="geometry" />
        </mxCell>
        <mxCell id="_8RPCpvjZjzcBCwXv_I6-24" value="" style="endArrow=classic;html=1;exitX=0.5;exitY=0;exitDx=0;exitDy=0;" parent="1" source="_8RPCpvjZjzcBCwXv_I6-19" edge="1">
          <mxGeometry width="50" height="50" relative="1" as="geometry">
            <mxPoint x="610" y="430" as="sourcePoint" />
            <mxPoint x="400" y="430" as="targetPoint" />
            <Array as="points">
              <mxPoint x="610" y="430" />
            </Array>
          </mxGeometry>
        </mxCell>
        <mxCell id="ikbd0YLyJ07GOoHk70pH-46" style="edgeStyle=orthogonalEdgeStyle;rounded=0;orthogonalLoop=1;jettySize=auto;html=1;entryX=0.5;entryY=0;entryDx=0;entryDy=0;" edge="1" parent="1" source="_8RPCpvjZjzcBCwXv_I6-25" target="_8RPCpvjZjzcBCwXv_I6-44">
          <mxGeometry relative="1" as="geometry" />
        </mxCell>
        <mxCell id="_8RPCpvjZjzcBCwXv_I6-25" value="SetPr=IPAP,&amp;nbsp; &amp;nbsp;&lt;br&gt;&amp;nbsp;MaxFlowRateDetected=False&lt;br&gt;T2= 0" style="rounded=1;whiteSpace=wrap;html=1;" parent="1" vertex="1">
          <mxGeometry x="305" y="710" width="190" height="50" as="geometry" />
        </mxCell>
        <mxCell id="_8RPCpvjZjzcBCwXv_I6-35" style="edgeStyle=orthogonalEdgeStyle;rounded=0;orthogonalLoop=1;jettySize=auto;html=1;exitX=0;exitY=0.5;exitDx=0;exitDy=0;" parent="1" source="_8RPCpvjZjzcBCwXv_I6-36" edge="1">
          <mxGeometry relative="1" as="geometry">
            <mxPoint x="400" y="330" as="targetPoint" />
            <Array as="points">
              <mxPoint x="120" y="410" />
              <mxPoint x="120" y="330" />
            </Array>
          </mxGeometry>
        </mxCell>
        <mxCell id="_8RPCpvjZjzcBCwXv_I6-41" style="edgeStyle=orthogonalEdgeStyle;rounded=0;orthogonalLoop=1;jettySize=auto;html=1;entryX=0;entryY=0.5;entryDx=0;entryDy=0;" parent="1" edge="1">
          <mxGeometry relative="1" as="geometry">
            <mxPoint x="460.0000000000002" y="1050" as="sourcePoint" />
            <mxPoint x="530" y="1050" as="targetPoint" />
          </mxGeometry>
        </mxCell>
        <mxCell id="_8RPCpvjZjzcBCwXv_I6-27" value="is T2&amp;gt;ITime" style="rhombus;whiteSpace=wrap;html=1;" parent="1" vertex="1">
          <mxGeometry x="340" y="1000" width="120" height="100" as="geometry" />
        </mxCell>
        <mxCell id="_8RPCpvjZjzcBCwXv_I6-30" style="edgeStyle=orthogonalEdgeStyle;rounded=0;orthogonalLoop=1;jettySize=auto;html=1;entryX=0.5;entryY=0;entryDx=0;entryDy=0;" parent="1" target="_8RPCpvjZjzcBCwXv_I6-27" edge="1" source="_8RPCpvjZjzcBCwXv_I6-44">
          <mxGeometry relative="1" as="geometry">
            <mxPoint x="400" y="890" as="sourcePoint" />
            <mxPoint x="400.0000000000002" y="950" as="targetPoint" />
          </mxGeometry>
        </mxCell>
        <mxCell id="_8RPCpvjZjzcBCwXv_I6-32" value="No" style="text;html=1;align=center;verticalAlign=middle;resizable=0;points=[];autosize=1;" parent="1" vertex="1">
          <mxGeometry x="460" y="1030" width="30" height="20" as="geometry" />
        </mxCell>
        <mxCell id="_8RPCpvjZjzcBCwXv_I6-37" value="Wait 20ms" style="rounded=1;whiteSpace=wrap;html=1;fillColor=#fff2cc;strokeColor=#d6b656;" parent="1" vertex="1">
          <mxGeometry x="560" y="470" width="90" height="40" as="geometry" />
        </mxCell>
        <mxCell id="ikbd0YLyJ07GOoHk70pH-2" value="No" style="text;html=1;align=center;verticalAlign=middle;resizable=0;points=[];autosize=1;" vertex="1" parent="1">
          <mxGeometry x="650" y="805" width="30" height="20" as="geometry" />
        </mxCell>
        <mxCell id="ikbd0YLyJ07GOoHk70pH-14" style="edgeStyle=orthogonalEdgeStyle;rounded=0;orthogonalLoop=1;jettySize=auto;html=1;entryX=0.5;entryY=1;entryDx=0;entryDy=0;" edge="1" parent="1" source="ikbd0YLyJ07GOoHk70pH-3" target="ikbd0YLyJ07GOoHk70pH-4">
          <mxGeometry relative="1" as="geometry" />
        </mxCell>
        <mxCell id="ikbd0YLyJ07GOoHk70pH-3" value="Detect Max Flow Rate&lt;br&gt;Set MaFR = peak flow&lt;br&gt;MaxFlowRateDetected =True" style="rounded=1;whiteSpace=wrap;html=1;" vertex="1" parent="1">
          <mxGeometry x="520" y="1025" width="240" height="50" as="geometry" />
        </mxCell>
        <mxCell id="ikbd0YLyJ07GOoHk70pH-12" style="edgeStyle=orthogonalEdgeStyle;rounded=0;orthogonalLoop=1;jettySize=auto;html=1;entryX=0.5;entryY=1;entryDx=0;entryDy=0;" edge="1" parent="1" source="ikbd0YLyJ07GOoHk70pH-4">
          <mxGeometry relative="1" as="geometry">
            <mxPoint x="750" y="850" as="targetPoint" />
            <Array as="points">
              <mxPoint x="750" y="925" />
            </Array>
          </mxGeometry>
        </mxCell>
        <mxCell id="ikbd0YLyJ07GOoHk70pH-13" style="edgeStyle=orthogonalEdgeStyle;rounded=0;orthogonalLoop=1;jettySize=auto;html=1;" edge="1" parent="1" source="ikbd0YLyJ07GOoHk70pH-19">
          <mxGeometry relative="1" as="geometry">
            <mxPoint x="400" y="800" as="targetPoint" />
            <Array as="points" />
          </mxGeometry>
        </mxCell>
        <mxCell id="ikbd0YLyJ07GOoHk70pH-21" style="edgeStyle=orthogonalEdgeStyle;rounded=0;orthogonalLoop=1;jettySize=auto;html=1;" edge="1" parent="1" source="ikbd0YLyJ07GOoHk70pH-4">
          <mxGeometry relative="1" as="geometry">
            <mxPoint x="640" y="800" as="targetPoint" />
          </mxGeometry>
        </mxCell>
        <mxCell id="ikbd0YLyJ07GOoHk70pH-4" value="MaxFlowRate&lt;br&gt;Detected ==true" style="rhombus;whiteSpace=wrap;html=1;" vertex="1" parent="1">
          <mxGeometry x="580" y="870" width="120" height="100" as="geometry" />
        </mxCell>
        <mxCell id="ikbd0YLyJ07GOoHk70pH-10" style="edgeStyle=orthogonalEdgeStyle;rounded=0;orthogonalLoop=1;jettySize=auto;html=1;exitX=0.5;exitY=0;exitDx=0;exitDy=0;" edge="1" parent="1" source="ikbd0YLyJ07GOoHk70pH-23">
          <mxGeometry relative="1" as="geometry">
            <mxPoint x="400" y="330" as="targetPoint" />
            <Array as="points">
              <mxPoint x="740" y="330" />
            </Array>
          </mxGeometry>
        </mxCell>
        <mxCell id="ikbd0YLyJ07GOoHk70pH-16" style="edgeStyle=orthogonalEdgeStyle;rounded=0;orthogonalLoop=1;jettySize=auto;html=1;entryX=1;entryY=0.5;entryDx=0;entryDy=0;exitX=0;exitY=0.5;exitDx=0;exitDy=0;" edge="1" parent="1" source="ikbd0YLyJ07GOoHk70pH-8" target="ikbd0YLyJ07GOoHk70pH-19">
          <mxGeometry relative="1" as="geometry">
            <mxPoint x="610" y="800" as="targetPoint" />
            <Array as="points">
              <mxPoint x="680" y="800" />
              <mxPoint x="680" y="800" />
            </Array>
          </mxGeometry>
        </mxCell>
        <mxCell id="ikbd0YLyJ07GOoHk70pH-8" value="IS&lt;br&gt;FlowRate&amp;lt;&amp;nbsp;&lt;br&gt;ETrigger" style="rhombus;whiteSpace=wrap;html=1;" vertex="1" parent="1">
          <mxGeometry x="690" y="750" width="120" height="100" as="geometry" />
        </mxCell>
        <mxCell id="ikbd0YLyJ07GOoHk70pH-11" value="Yes" style="text;html=1;align=center;verticalAlign=middle;resizable=0;points=[];autosize=1;" vertex="1" parent="1">
          <mxGeometry x="750" y="600" width="40" height="20" as="geometry" />
        </mxCell>
        <mxCell id="ikbd0YLyJ07GOoHk70pH-15" value="Yes" style="text;html=1;align=center;verticalAlign=middle;resizable=0;points=[];autosize=1;" vertex="1" parent="1">
          <mxGeometry x="710" y="870" width="40" height="20" as="geometry" />
        </mxCell>
        <mxCell id="ikbd0YLyJ07GOoHk70pH-17" value="No" style="text;html=1;align=center;verticalAlign=middle;resizable=0;points=[];autosize=1;" vertex="1" parent="1">
          <mxGeometry x="660" y="660" width="30" height="20" as="geometry" />
        </mxCell>
        <mxCell id="ikbd0YLyJ07GOoHk70pH-19" value="Wait 20ms" style="rounded=1;whiteSpace=wrap;html=1;fillColor=#fff2cc;strokeColor=#d6b656;" vertex="1" parent="1">
          <mxGeometry x="520" y="780" width="80" height="40" as="geometry" />
        </mxCell>
        <mxCell id="ikbd0YLyJ07GOoHk70pH-25" value="loop cycle time" style="rounded=0;whiteSpace=wrap;html=1;fillColor=#fff2cc;strokeColor=#d6b656;" vertex="1" parent="1">
          <mxGeometry x="690" y="130" width="100" height="30" as="geometry" />
        </mxCell>
        <mxCell id="ikbd0YLyJ07GOoHk70pH-28" value="Set Alarm&amp;nbsp;&lt;br&gt;&quot;No Breath Detected&quot;" style="rounded=1;whiteSpace=wrap;html=1;fillColor=#f8cecc;strokeColor=#b85450;" vertex="1" parent="1">
          <mxGeometry x="480" y="650" width="110" height="50" as="geometry" />
        </mxCell>
        <mxCell id="ikbd0YLyJ07GOoHk70pH-30" value="BRate =&lt;br&gt;1&lt;hr&gt;(Tcur -T1)" style="rounded=1;whiteSpace=wrap;html=1;" vertex="1" parent="1">
          <mxGeometry x="680" y="480" width="120" height="60" as="geometry" />
        </mxCell>
        <mxCell id="ikbd0YLyJ07GOoHk70pH-32" style="edgeStyle=orthogonalEdgeStyle;rounded=0;orthogonalLoop=1;jettySize=auto;html=1;exitX=0.5;exitY=0;exitDx=0;exitDy=0;" edge="1" parent="1" source="ikbd0YLyJ07GOoHk70pH-8" target="ikbd0YLyJ07GOoHk70pH-30">
          <mxGeometry relative="1" as="geometry">
            <mxPoint x="400" y="330" as="targetPoint" />
            <mxPoint x="750" y="640" as="sourcePoint" />
            <Array as="points">
              <mxPoint x="750" y="590" />
              <mxPoint x="750" y="590" />
            </Array>
          </mxGeometry>
        </mxCell>
        <mxCell id="ikbd0YLyJ07GOoHk70pH-23" value="Wait 20ms" style="rounded=1;whiteSpace=wrap;html=1;fillColor=#fff2cc;strokeColor=#d6b656;" vertex="1" parent="1">
          <mxGeometry x="700" y="390" width="80" height="40" as="geometry" />
        </mxCell>
        <mxCell id="ikbd0YLyJ07GOoHk70pH-33" style="edgeStyle=orthogonalEdgeStyle;rounded=0;orthogonalLoop=1;jettySize=auto;html=1;exitX=0.5;exitY=0;exitDx=0;exitDy=0;entryX=0.5;entryY=1;entryDx=0;entryDy=0;" edge="1" parent="1" source="ikbd0YLyJ07GOoHk70pH-30" target="ikbd0YLyJ07GOoHk70pH-23">
          <mxGeometry relative="1" as="geometry">
            <mxPoint x="740" y="440" as="targetPoint" />
            <mxPoint x="740" y="480" as="sourcePoint" />
            <Array as="points" />
          </mxGeometry>
        </mxCell>
        <mxCell id="ikbd0YLyJ07GOoHk70pH-29" value="BRate =&lt;br&gt;1&lt;hr&gt;(Tcur -T1)" style="rounded=1;whiteSpace=wrap;html=1;" vertex="1" parent="1">
          <mxGeometry x="60" y="500" width="120" height="60" as="geometry" />
        </mxCell>
        <mxCell id="ikbd0YLyJ07GOoHk70pH-35" style="edgeStyle=orthogonalEdgeStyle;rounded=0;orthogonalLoop=1;jettySize=auto;html=1;exitX=0;exitY=0.5;exitDx=0;exitDy=0;" edge="1" parent="1" source="ikbd0YLyJ07GOoHk70pH-26" target="ikbd0YLyJ07GOoHk70pH-29">
          <mxGeometry relative="1" as="geometry">
            <mxPoint x="400" y="330" as="targetPoint" />
            <Array as="points" />
            <mxPoint x="340" y="970" as="sourcePoint" />
          </mxGeometry>
        </mxCell>
        <mxCell id="ikbd0YLyJ07GOoHk70pH-26" value="Set Alarm&amp;nbsp;&lt;br&gt;&quot;ITime Set Too LOW&quot;" style="rounded=1;whiteSpace=wrap;html=1;fillColor=#f8cecc;strokeColor=#b85450;" vertex="1" parent="1">
          <mxGeometry x="170" y="1025" width="110" height="50" as="geometry" />
        </mxCell>
        <mxCell id="ikbd0YLyJ07GOoHk70pH-36" style="edgeStyle=orthogonalEdgeStyle;rounded=0;orthogonalLoop=1;jettySize=auto;html=1;exitX=0;exitY=0.5;exitDx=0;exitDy=0;" edge="1" parent="1">
          <mxGeometry relative="1" as="geometry">
            <mxPoint x="280" y="1050" as="targetPoint" />
            <Array as="points">
              <mxPoint x="310" y="1050" />
              <mxPoint x="310" y="1050" />
            </Array>
            <mxPoint x="340.0000000000002" y="1050" as="sourcePoint" />
          </mxGeometry>
        </mxCell>
        <mxCell id="_8RPCpvjZjzcBCwXv_I6-36" value="Wait 20ms" style="rounded=1;whiteSpace=wrap;html=1;fillColor=#fff2cc;strokeColor=#d6b656;" parent="1" vertex="1">
          <mxGeometry x="75" y="390" width="90" height="40" as="geometry" />
        </mxCell>
        <mxCell id="ikbd0YLyJ07GOoHk70pH-37" style="edgeStyle=orthogonalEdgeStyle;rounded=0;orthogonalLoop=1;jettySize=auto;html=1;" edge="1" parent="1" target="_8RPCpvjZjzcBCwXv_I6-36">
          <mxGeometry relative="1" as="geometry">
            <mxPoint x="400" y="330" as="targetPoint" />
            <Array as="points">
              <mxPoint x="120" y="460" />
              <mxPoint x="120" y="460" />
            </Array>
            <mxPoint x="120" y="500" as="sourcePoint" />
          </mxGeometry>
        </mxCell>
        <mxCell id="ikbd0YLyJ07GOoHk70pH-38" value="Alarms" style="rounded=0;whiteSpace=wrap;html=1;fillColor=#f8cecc;strokeColor=#b85450;" vertex="1" parent="1">
          <mxGeometry x="690" y="180" width="100" height="30" as="geometry" />
        </mxCell>
        <mxCell id="_8RPCpvjZjzcBCwXv_I6-44" value="&lt;div align=&quot;left&quot;&gt;&lt;ul&gt;&lt;li&gt;Read Current Pressur -&amp;gt;ActPR&lt;/li&gt;&lt;li&gt;Run PID-Loop(SetPr,ActPr,Output)&lt;/li&gt;&lt;li&gt;Print Measured Pressure to LCD&lt;/li&gt;&lt;li&gt;Set Blower PWM-&amp;gt; Output&lt;br&gt;&lt;/li&gt;&lt;li&gt;Read FlowRate&lt;/li&gt;&lt;/ul&gt;&lt;/div&gt;" style="rounded=1;whiteSpace=wrap;html=1;align=left;" parent="1" vertex="1">
          <mxGeometry x="280" y="850" width="240" height="90" as="geometry" />
        </mxCell>
      </root>
    </mxGraphModel>
  </diagram>
</mxfile>
